<svg xmlns="http://www.w3.org/2000/svg" xmlns:xlink="http://www.w3.org/1999/xlink" width="150" zoomAndPan="magnify" viewBox="0 0 112.5 112.499997" height="150" preserveAspectRatio="xMidYMid meet" version="1.0"><defs><clipPath id="6256ce2085"><path d="M 0.5625 3 L 112.003906 3 L 112.003906 109.496094 L 0.5625 109.496094 Z M 0.5625 3 " clip-rule="nonzero"/></clipPath></defs><g clip-path="url(#6256ce2085)"><path fill="#ffab3e" d="M 108.988281 3.050781 C 108.816406 3.054688 108.640625 3.066406 108.46875 3.097656 C 108.46875 3.097656 108.464844 3.097656 108.460938 3.097656 L 91.382812 6.003906 C 90.296875 6.191406 89.386719 6.933594 88.984375 7.957031 C 88.984375 7.957031 88.984375 7.960938 88.984375 7.964844 L 81.0625 28.214844 L 3.722656 30.140625 C 2.832031 30.160156 2 30.5625 1.421875 31.230469 C 0.84375 31.894531 0.5625 32.785156 0.671875 33.667969 L 4.941406 68.863281 C 5.117188 70.339844 6.339844 71.511719 7.828125 71.625 L 62.964844 75.996094 L 73.890625 84.5625 C 73.90625 84.574219 73.917969 84.582031 73.929688 84.59375 C 73.941406 84.601562 73.957031 84.605469 73.96875 84.613281 C 73.980469 84.621094 73.992188 84.632812 74.007812 84.640625 C 76 86.125 76.496094 88.144531 76.214844 89.269531 C 76.054688 89.90625 75.808594 90.378906 75.226562 90.742188 C 74.644531 91.101562 73.636719 91.363281 71.914062 91.265625 C 71.910156 91.265625 71.902344 91.265625 71.894531 91.265625 C 71.839844 91.265625 71.777344 91.265625 71.722656 91.265625 C 71.714844 91.265625 71.703125 91.265625 71.695312 91.265625 L 5.9375 91.457031 L 5.925781 91.457031 C 4.199219 91.445312 2.746094 92.890625 2.753906 94.613281 C 2.757812 96.335938 4.21875 97.773438 5.945312 97.75 L 5.957031 97.75 L 10.761719 97.738281 C 8.976562 98.875 7.777344 100.859375 7.777344 103.113281 C 7.777344 106.621094 10.660156 109.492188 14.179688 109.492188 C 17.695312 109.492188 20.578125 106.621094 20.578125 103.113281 C 20.578125 100.847656 19.375 98.84375 17.574219 97.710938 L 71.722656 97.558594 C 69.773438 98.65625 68.441406 100.734375 68.441406 103.113281 C 68.441406 106.621094 71.324219 109.492188 74.84375 109.492188 C 78.359375 109.492188 81.242188 106.621094 81.242188 103.113281 C 81.242188 100.070312 79.070312 97.5 76.195312 96.878906 C 78.914062 95.921875 81.003906 93.945312 82.296875 90.921875 C 82.316406 90.886719 82.332031 90.847656 82.34375 90.808594 C 83.335938 86.855469 81.578125 82.558594 77.949219 79.765625 C 77.941406 79.753906 77.929688 79.746094 77.921875 79.734375 C 77.914062 79.726562 77.910156 79.714844 77.902344 79.707031 C 77.871094 79.667969 77.835938 79.632812 77.796875 79.601562 L 70.054688 73.550781 L 94.203125 11.902344 L 109.523438 9.304688 C 109.527344 9.300781 109.53125 9.304688 109.535156 9.304688 C 111.144531 9.046875 112.320312 7.550781 112.183594 5.929688 C 112.042969 4.300781 110.621094 3.027344 108.988281 3.050781 Z M 78.730469 33.074219 L 74.277344 44.453125 L 68.472656 44.453125 L 68.472656 33.332031 Z M 66.257812 33.390625 L 66.257812 44.453125 L 55.542969 44.453125 L 55.542969 33.65625 Z M 53.324219 33.707031 L 53.324219 44.453125 L 42.609375 44.453125 L 42.609375 33.972656 Z M 40.390625 34.03125 L 40.390625 44.453125 L 29.675781 44.453125 L 29.675781 34.296875 Z M 27.460938 34.355469 L 27.460938 44.453125 L 16.742188 44.453125 L 16.742188 34.625 Z M 14.527344 34.671875 L 14.527344 44.453125 L 6.667969 44.453125 L 5.507812 34.902344 Z M 6.9375 46.652344 L 14.527344 46.652344 L 14.527344 56.644531 L 8.148438 56.644531 Z M 16.742188 46.652344 L 27.460938 46.652344 L 27.460938 56.644531 L 16.742188 56.644531 Z M 29.675781 46.652344 L 40.390625 46.652344 L 40.390625 56.644531 L 29.675781 56.644531 Z M 42.609375 46.652344 L 53.324219 46.652344 L 53.324219 56.644531 L 42.609375 56.644531 Z M 55.542969 46.652344 L 66.257812 46.652344 L 66.257812 56.644531 L 55.542969 56.644531 Z M 68.472656 46.652344 L 73.425781 46.652344 L 69.511719 56.644531 L 68.472656 56.644531 Z M 8.417969 58.84375 L 14.527344 58.84375 L 14.527344 66.015625 L 9.234375 65.59375 Z M 16.746094 58.84375 L 27.460938 58.84375 L 27.460938 67.039062 L 16.746094 66.1875 Z M 29.675781 58.84375 L 40.394531 58.84375 L 40.394531 68.0625 L 29.675781 67.21875 Z M 42.609375 58.84375 L 53.328125 58.84375 L 53.328125 69.09375 L 42.609375 68.242188 Z M 55.542969 58.84375 L 66.257812 58.84375 L 66.257812 64.925781 L 64.226562 70.117188 C 63.960938 69.988281 63.671875 69.910156 63.378906 69.886719 L 55.542969 69.265625 Z M 68.476562 58.84375 L 68.636719 58.84375 L 68.476562 59.292969 Z M 14.183594 99.367188 C 16.273438 99.367188 17.945312 101.03125 17.945312 103.113281 C 17.945312 105.199219 16.273438 106.851562 14.183594 106.851562 C 12.09375 106.851562 10.421875 105.199219 10.421875 103.113281 C 10.421875 101.03125 12.09375 99.367188 14.183594 99.367188 Z M 74.84375 99.367188 C 76.9375 99.367188 78.605469 101.03125 78.605469 103.113281 C 78.605469 105.199219 76.9375 106.851562 74.84375 106.851562 C 72.753906 106.851562 71.085938 105.199219 71.085938 103.113281 C 71.085938 101.03125 72.753906 99.367188 74.84375 99.367188 Z M 14.183594 101.144531 C 13.046875 101.144531 12.140625 102.050781 12.140625 103.179688 C 12.140625 104.3125 13.046875 105.207031 14.183594 105.207031 C 15.320312 105.207031 16.226562 104.3125 16.226562 103.179688 C 16.226562 102.050781 15.320312 101.144531 14.183594 101.144531 Z M 74.84375 101.144531 C 73.710938 101.144531 72.800781 102.050781 72.800781 103.179688 C 72.800781 104.3125 73.710938 105.207031 74.84375 105.207031 C 75.980469 105.207031 76.890625 104.3125 76.890625 103.179688 C 76.890625 102.050781 75.980469 101.144531 74.84375 101.144531 Z M 74.84375 101.144531 " fill-opacity="1" fill-rule="nonzero"/></g></svg>