<svg xmlns="http://www.w3.org/2000/svg" xmlns:xlink="http://www.w3.org/1999/xlink" width="135" zoomAndPan="magnify" viewBox="0 0 101.25 101.249999" height="135" preserveAspectRatio="xMidYMid meet" version="1.0"><defs><clipPath id="2c021b0539"><path d="M 0 0 L 100.503906 0 L 100.503906 100.503906 L 0 100.503906 Z M 0 0 " clip-rule="nonzero"/></clipPath><clipPath id="17bc3ff715"><path d="M 23.351562 13.335938 L 74 13.335938 L 74 86 L 23.351562 86 Z M 23.351562 13.335938 " clip-rule="nonzero"/></clipPath><clipPath id="dff92a9a0e"><path d="M 40 13.335938 L 47 13.335938 L 47 35 L 40 35 Z M 40 13.335938 " clip-rule="nonzero"/></clipPath><clipPath id="7853d13fe7"><path d="M 58 63 L 76.953125 63 L 76.953125 80 L 58 80 Z M 58 63 " clip-rule="nonzero"/></clipPath></defs><g clip-path="url(#2c021b0539)"><path fill="#ffffff" d="M 0 0 L 100.503906 0 L 100.503906 100.503906 L 0 100.503906 Z M 0 0 " fill-opacity="1" fill-rule="nonzero"/><path fill="#ffffff" d="M 0 0 L 100.503906 0 L 100.503906 100.503906 L 0 100.503906 Z M 0 0 " fill-opacity="1" fill-rule="nonzero"/></g><g clip-path="url(#17bc3ff715)"><path fill="#ffab3e" d="M 39.03125 13.761719 C 39.03125 13.761719 23.429688 13.964844 23.632812 28.128906 C 23.835938 42.289062 26.671875 54.8125 31.332031 61.789062 C 35.996094 68.769531 47.949219 87.039062 61.527344 85.191406 C 61.527344 85.191406 68.214844 83.753906 73.277344 80.46875 L 56.867188 67.539062 C 56.867188 67.539062 52.003906 70.617188 48.960938 66.511719 C 45.921875 62.40625 36.398438 43.316406 36.398438 43.316406 C 36.398438 43.316406 33.765625 37.160156 39.640625 34.492188 Z M 39.03125 13.761719 " fill-opacity="1" fill-rule="nonzero"/></g><g clip-path="url(#dff92a9a0e)"><path fill="#ffab3e" d="M 40.859375 13.761719 C 40.859375 13.761719 42.074219 13.351562 44.300781 14.582031 C 46.53125 15.8125 46.53125 16.835938 46.53125 16.835938 L 46.734375 31.003906 C 46.734375 31.003906 46.125 31.824219 45.316406 32.644531 C 44.503906 33.464844 41.871094 34.695312 41.464844 33.875 C 41.0625 33.054688 40.859375 13.761719 40.859375 13.761719 Z M 40.859375 13.761719 " fill-opacity="1" fill-rule="nonzero"/></g><g clip-path="url(#7853d13fe7)"><path fill="#ffab3e" d="M 58.230469 66.023438 L 62.742188 63.636719 C 62.742188 63.636719 63.753906 63.433594 65.375 64.457031 C 66.996094 65.488281 75.507812 72.261719 75.507812 72.261719 C 75.507812 72.261719 76.925781 73.492188 76.523438 74.929688 C 76.117188 76.367188 75.105469 79.445312 75.105469 79.445312 Z M 58.230469 66.023438 " fill-opacity="1" fill-rule="nonzero"/></g></svg>