<svg xmlns="http://www.w3.org/2000/svg" xmlns:xlink="http://www.w3.org/1999/xlink" width="135" zoomAndPan="magnify" viewBox="0 0 101.25 101.249999" height="135" preserveAspectRatio="xMidYMid meet" version="1.0"><defs><clipPath id="3f33ef60e7"><path d="M 0 0 L 100.503906 0 L 100.503906 100.503906 L 0 100.503906 Z M 0 0 " clip-rule="nonzero"/></clipPath><clipPath id="368db82827"><path d="M 15.332031 15.332031 L 85.3125 15.332031 L 85.3125 85.3125 L 15.332031 85.3125 Z M 15.332031 15.332031 " clip-rule="nonzero"/></clipPath></defs><g clip-path="url(#3f33ef60e7)"><path fill="#ffffff" d="M 0 0 L 100.503906 0 L 100.503906 100.503906 L 0 100.503906 Z M 0 0 " fill-opacity="1" fill-rule="nonzero"/><path fill="#ffffff" d="M 0 0 L 100.503906 0 L 100.503906 100.503906 L 0 100.503906 Z M 0 0 " fill-opacity="1" fill-rule="nonzero"/></g><path fill="#ffab3e" d="M 48.070312 29.058594 L 66.074219 29.058594 L 66.074219 47.058594 L 64.777344 47.058594 L 64.199219 43.605469 C 63.902344 41.800781 62.855469 40.183594 61.335938 39.175781 C 61.0625 38.992188 60.78125 38.835938 60.492188 38.695312 C 61.160156 37.914062 61.574219 36.910156 61.574219 35.808594 C 61.574219 33.324219 59.554688 31.308594 57.070312 31.308594 C 54.589844 31.308594 52.570312 33.324219 52.570312 35.808594 C 52.570312 36.910156 52.984375 37.914062 53.652344 38.695312 C 53.363281 38.835938 53.082031 38.992188 52.808594 39.175781 C 51.289062 40.183594 50.242188 41.800781 49.941406 43.605469 L 49.367188 47.058594 L 48.070312 47.058594 Z M 54.058594 41.046875 C 54.78125 40.5625 55.621094 40.308594 56.492188 40.308594 L 57.652344 40.308594 C 58.523438 40.308594 59.363281 40.5625 60.085938 41.046875 C 61.09375 41.714844 61.777344 42.78125 61.980469 43.972656 L 62.496094 47.058594 L 51.648438 47.058594 L 52.164062 43.972656 C 52.363281 42.78125 53.050781 41.714844 54.058594 41.046875 Z M 57.070312 38.058594 C 55.832031 38.058594 54.820312 37.046875 54.820312 35.808594 C 54.820312 34.566406 55.832031 33.558594 57.070312 33.558594 C 58.3125 33.558594 59.320312 34.566406 59.320312 35.808594 C 59.320312 37.046875 58.3125 38.058594 57.070312 38.058594 Z M 68.324219 49.308594 L 68.324219 26.804688 L 45.820312 26.804688 L 45.820312 49.308594 L 68.324219 49.308594 " fill-opacity="1" fill-rule="nonzero"/><path fill="#ffab3e" d="M 43.570312 33.558594 L 30.070312 33.558594 L 30.070312 35.808594 L 43.570312 35.808594 L 43.570312 33.558594 " fill-opacity="1" fill-rule="nonzero"/><path fill="#ffab3e" d="M 43.570312 38.058594 L 30.070312 38.058594 L 30.070312 40.308594 L 43.570312 40.308594 L 43.570312 38.058594 " fill-opacity="1" fill-rule="nonzero"/><path fill="#ffab3e" d="M 43.570312 42.558594 L 30.070312 42.558594 L 30.070312 44.808594 L 43.570312 44.808594 L 43.570312 42.558594 " fill-opacity="1" fill-rule="nonzero"/><path fill="#ffab3e" d="M 43.570312 47.058594 L 30.070312 47.058594 L 30.070312 49.308594 L 43.570312 49.308594 L 43.570312 47.058594 " fill-opacity="1" fill-rule="nonzero"/><path fill="#ffab3e" d="M 30.070312 53.808594 L 68.324219 53.808594 L 68.324219 51.558594 L 30.070312 51.558594 L 30.070312 53.808594 " fill-opacity="1" fill-rule="nonzero"/><path fill="#ffab3e" d="M 54.820312 74.0625 L 66.074219 74.0625 L 66.074219 78.5625 L 54.820312 78.5625 Z M 52.570312 80.8125 L 68.324219 80.8125 L 68.324219 71.8125 L 52.570312 71.8125 L 52.570312 80.8125 " fill-opacity="1" fill-rule="nonzero"/><path fill="#ffab3e" d="M 41.320312 80.8125 L 50.320312 80.8125 L 50.320312 78.5625 L 41.320312 78.5625 L 41.320312 80.8125 " fill-opacity="1" fill-rule="nonzero"/><path fill="#ffab3e" d="M 41.320312 76.3125 L 50.320312 76.3125 L 50.320312 74.0625 L 41.320312 74.0625 L 41.320312 76.3125 " fill-opacity="1" fill-rule="nonzero"/><g clip-path="url(#368db82827)"><path fill="#ffab3e" d="M 81.800781 75.582031 L 72.824219 77.210938 L 72.824219 24.554688 C 72.824219 23.316406 71.8125 22.304688 70.574219 22.304688 L 43.570312 22.304688 L 43.570312 22.160156 L 75.070312 17.820312 C 75.746094 17.730469 76.367188 18.214844 76.441406 18.890625 L 82.941406 74.050781 C 82.945312 74.105469 82.949219 74.15625 82.949219 74.210938 C 82.949219 74.882812 82.46875 75.457031 81.800781 75.582031 Z M 70.574219 83.0625 L 27.820312 83.0625 L 27.820312 81.277344 L 41.179688 67.917969 L 44.378906 58.308594 L 68.324219 58.308594 L 68.324219 56.058594 L 43.390625 56.058594 L 32.839844 59.574219 L 27.820312 64.59375 L 27.820312 24.554688 L 32.320312 24.554688 L 32.320312 27.933594 C 32.320312 29.796875 33.832031 31.308594 35.695312 31.308594 C 37.558594 31.308594 39.070312 29.796875 39.070312 27.933594 L 39.070312 24.554688 L 41.320312 24.554688 L 41.320312 29.058594 L 43.570312 29.058594 L 43.570312 24.554688 L 70.574219 24.554688 Z M 21.339844 83.0625 C 19.328125 83.0625 17.691406 81.425781 17.691406 79.414062 C 17.691406 78.4375 18.070312 77.523438 18.761719 76.835938 L 19.945312 75.652344 L 25.101562 80.8125 L 23.921875 81.992188 C 23.230469 82.683594 22.316406 83.0625 21.339844 83.0625 Z M 33.445312 62.152344 L 38.605469 67.308594 L 26.695312 79.222656 L 21.535156 74.0625 Z M 37.359375 60.441406 L 40.3125 63.394531 L 39.703125 65.226562 L 35.527344 61.050781 Z M 41.109375 61.007812 L 39.746094 59.644531 L 41.789062 58.964844 Z M 34.570312 24.554688 L 36.820312 24.554688 L 36.820312 27.933594 C 36.820312 28.550781 36.316406 29.058594 35.695312 29.058594 C 35.074219 29.058594 34.570312 28.550781 34.570312 27.933594 Z M 34.570312 20.054688 C 34.570312 18.816406 35.582031 17.804688 36.820312 17.804688 L 39.070312 17.804688 C 40.308594 17.804688 41.320312 18.816406 41.320312 20.054688 L 41.320312 22.304688 L 39.070312 22.304688 L 39.070312 20.054688 L 36.820312 20.054688 L 36.820312 22.304688 L 34.570312 22.304688 Z M 85.171875 73.785156 L 78.675781 18.632812 C 78.460938 16.71875 76.667969 15.316406 74.761719 15.585938 L 43.554688 19.894531 C 43.464844 17.488281 41.496094 15.554688 39.070312 15.554688 L 36.820312 15.554688 C 34.335938 15.554688 32.320312 17.574219 32.320312 20.054688 L 32.320312 22.304688 L 27.820312 22.304688 C 26.578125 22.304688 25.570312 23.316406 25.570312 24.554688 L 25.570312 66.84375 L 17.171875 75.242188 C 16.058594 76.359375 15.441406 77.839844 15.441406 79.414062 C 15.441406 82.667969 18.089844 85.3125 21.339844 85.3125 C 22.917969 85.3125 24.398438 84.695312 25.511719 83.585938 L 25.613281 83.484375 C 25.8125 84.527344 26.726562 85.3125 27.820312 85.3125 L 70.574219 85.3125 C 71.8125 85.3125 72.824219 84.300781 72.824219 83.0625 L 72.824219 79.503906 L 82.207031 77.796875 C 83.941406 77.480469 85.199219 75.972656 85.199219 74.210938 C 85.199219 74.066406 85.191406 73.921875 85.171875 73.785156 " fill-opacity="1" fill-rule="nonzero"/></g></svg>