<svg xmlns="http://www.w3.org/2000/svg" xmlns:xlink="http://www.w3.org/1999/xlink" width="135" zoomAndPan="magnify" viewBox="0 0 101.25 101.249999" height="135" preserveAspectRatio="xMidYMid meet" version="1.0"><defs><clipPath id="57fe629376"><path d="M 0 0 L 100.503906 0 L 100.503906 100.503906 L 0 100.503906 Z M 0 0 " clip-rule="nonzero"/></clipPath><clipPath id="94f868c025"><path d="M 14.535156 20.339844 L 81 20.339844 L 81 30 L 14.535156 30 Z M 14.535156 20.339844 " clip-rule="nonzero"/></clipPath><clipPath id="ca00fe2623"><path d="M 14.535156 38 L 81 38 L 81 68 L 14.535156 68 Z M 14.535156 38 " clip-rule="nonzero"/></clipPath><clipPath id="86542440f7"><path d="M 56 50 L 86.007812 50 L 86.007812 79.898438 L 56 79.898438 Z M 56 50 " clip-rule="nonzero"/></clipPath></defs><g clip-path="url(#57fe629376)"><path fill="#ffffff" d="M 0 0 L 100.503906 0 L 100.503906 100.503906 L 0 100.503906 Z M 0 0 " fill-opacity="1" fill-rule="nonzero"/><path fill="#ffffff" d="M 0 0 L 100.503906 0 L 100.503906 100.503906 L 0 100.503906 Z M 0 0 " fill-opacity="1" fill-rule="nonzero"/></g><g clip-path="url(#94f868c025)"><path fill="#ffab3e" d="M 80.050781 29.332031 L 80.050781 26.371094 C 80.050781 23.109375 77.371094 20.441406 74.09375 20.441406 L 20.492188 20.441406 C 17.21875 20.441406 14.535156 23.109375 14.535156 26.371094 L 14.535156 29.332031 Z M 80.050781 29.332031 " fill-opacity="1" fill-rule="nonzero"/></g><g clip-path="url(#ca00fe2623)"><path fill="#ffab3e" d="M 14.535156 38.222656 L 14.535156 61.929688 C 14.535156 65.1875 17.21875 67.855469 20.492188 67.855469 L 50.273438 67.855469 L 50.273438 64.890625 C 50.273438 53.457031 59.625 44.148438 71.117188 44.148438 L 80.050781 44.148438 L 80.050781 38.222656 Z M 29.425781 58.964844 L 20.492188 58.964844 L 20.492188 53.039062 L 29.425781 53.039062 Z M 44.316406 58.964844 L 35.382812 58.964844 L 35.382812 53.039062 L 44.316406 53.039062 Z M 44.316406 58.964844 " fill-opacity="1" fill-rule="nonzero"/></g><g clip-path="url(#86542440f7)"><path fill="#ffab3e" d="M 71.117188 50.074219 C 62.894531 50.074219 56.226562 56.710938 56.226562 64.890625 C 56.226562 73.070312 62.894531 79.707031 71.117188 79.707031 C 79.339844 79.707031 86.007812 73.070312 86.007812 64.890625 C 86.007812 56.710938 79.339844 50.074219 71.117188 50.074219 Z M 70.066406 71.441406 L 62.167969 63.582031 L 65.328125 60.4375 L 70.066406 65.152344 L 76.910156 58.34375 L 80.066406 61.484375 Z M 70.066406 71.441406 " fill-opacity="1" fill-rule="nonzero"/></g></svg>