<svg xmlns="http://www.w3.org/2000/svg" xmlns:xlink="http://www.w3.org/1999/xlink" width="40" zoomAndPan="magnify" viewBox="0 0 30 30.000001" height="40" preserveAspectRatio="xMidYMid meet" version="1.0"><defs><clipPath id="b13dfa0f39"><path d="M 6.152344 5.464844 L 23.570312 5.464844 L 23.570312 23.609375 L 6.152344 23.609375 Z M 6.152344 5.464844 " clip-rule="nonzero"/></clipPath></defs><path fill="#ffffff" d="M 15.65625 10.707031 C 15.34375 10.707031 15.085938 10.96875 15.085938 11.289062 L 15.085938 15.015625 L 13.003906 16.710938 C 12.761719 16.910156 12.71875 17.277344 12.914062 17.527344 C 13.109375 17.777344 13.472656 17.816406 13.71875 17.617188 L 15.957031 15.796875 L 15.960938 15.792969 C 16 15.761719 16.011719 15.746094 15.976562 15.777344 L 15.949219 15.800781 C 16.109375 15.699219 16.226562 15.519531 16.226562 15.304688 L 16.226562 11.289062 C 16.226562 10.96875 15.972656 10.707031 15.65625 10.707031 " fill-opacity="1" fill-rule="nonzero"/><g clip-path="url(#b13dfa0f39)"><path fill="#ffffff" d="M 22.382812 17.253906 C 22.160156 17.25 21.941406 17.359375 21.808594 17.542969 C 21.703125 17.691406 21.65625 17.878906 21.6875 18.0625 C 21.710938 18.242188 21.8125 18.410156 21.957031 18.519531 C 22.101562 18.625 22.289062 18.671875 22.46875 18.644531 C 22.644531 18.617188 22.8125 18.515625 22.917969 18.367188 C 23.023438 18.21875 23.070312 18.03125 23.042969 17.847656 C 23.015625 17.667969 22.914062 17.5 22.769531 17.390625 C 22.65625 17.308594 22.523438 17.261719 22.382812 17.253906 Z M 22.863281 14.886719 C 22.84375 14.886719 22.828125 14.886719 22.8125 14.886719 C 22.613281 14.898438 22.417969 15.007812 22.300781 15.171875 C 22.195312 15.320312 22.148438 15.511719 22.175781 15.691406 C 22.203125 15.871094 22.304688 16.039062 22.449219 16.148438 C 22.59375 16.257812 22.78125 16.304688 22.960938 16.277344 C 23.136719 16.246094 23.300781 16.144531 23.410156 15.996094 C 23.515625 15.847656 23.558594 15.65625 23.53125 15.476562 C 23.503906 15.296875 23.402344 15.128906 23.257812 15.019531 C 23.144531 14.933594 23.003906 14.886719 22.863281 14.886719 Z M 22.894531 12.4375 C 22.878906 12.4375 22.863281 12.4375 22.84375 12.4375 C 22.644531 12.449219 22.449219 12.558594 22.332031 12.722656 C 22.226562 12.871094 22.179688 13.0625 22.207031 13.246094 C 22.234375 13.425781 22.335938 13.59375 22.480469 13.699219 C 22.625 13.808594 22.8125 13.855469 22.988281 13.828125 C 23.167969 13.800781 23.332031 13.695312 23.4375 13.546875 C 23.542969 13.402344 23.589844 13.210938 23.5625 13.03125 C 23.535156 12.847656 23.4375 12.679688 23.289062 12.570312 C 23.175781 12.488281 23.035156 12.4375 22.894531 12.4375 Z M 22.222656 10.15625 C 22 10.148438 21.78125 10.257812 21.648438 10.441406 C 21.542969 10.589844 21.496094 10.78125 21.523438 10.960938 C 21.550781 11.140625 21.652344 11.308594 21.796875 11.417969 C 21.941406 11.523438 22.128906 11.570312 22.304688 11.542969 C 22.484375 11.515625 22.648438 11.414062 22.753906 11.269531 C 22.753906 11.269531 22.753906 11.265625 22.753906 11.265625 C 22.863281 11.117188 22.90625 10.929688 22.878906 10.746094 C 22.851562 10.566406 22.753906 10.398438 22.605469 10.289062 C 22.496094 10.207031 22.363281 10.160156 22.222656 10.15625 Z M 15.019531 5.609375 C 13.640625 5.601562 12.265625 5.933594 11.039062 6.5625 C 9.808594 7.191406 8.730469 8.125 7.917969 9.253906 C 7.242188 10.195312 6.75 11.269531 6.480469 12.402344 C 6.207031 13.53125 6.160156 14.71875 6.335938 15.867188 C 6.507812 17.019531 6.910156 18.136719 7.503906 19.132812 C 8.097656 20.125 8.886719 21 9.808594 21.6875 C 10.671875 22.332031 11.652344 22.8125 12.683594 23.097656 C 13.71875 23.378906 14.800781 23.46875 15.867188 23.359375 C 16.929688 23.246094 17.972656 22.933594 18.925781 22.441406 C 19.882812 21.945312 20.746094 21.273438 21.460938 20.464844 C 21.496094 20.421875 21.492188 20.359375 21.453125 20.324219 C 21.449219 20.320312 21.445312 20.320312 21.445312 20.316406 L 20.699219 19.761719 C 20.660156 19.734375 20.605469 19.738281 20.574219 19.773438 C 19.410156 21.046875 17.820312 21.921875 16.132812 22.1875 C 14.160156 22.5 12.070312 21.976562 10.460938 20.777344 C 8.851562 19.578125 7.734375 17.707031 7.429688 15.695312 C 7.125 13.6875 7.632812 11.558594 8.808594 9.917969 C 9.988281 8.277344 11.828125 7.140625 13.800781 6.828125 C 15.496094 6.5625 17.269531 6.925781 18.757812 7.792969 L 18.742188 7.816406 C 18.738281 7.816406 18.738281 7.816406 18.738281 7.816406 L 18.382812 8.308594 C 18.28125 8.449219 18.257812 8.636719 18.324219 8.800781 C 18.390625 8.960938 18.535156 9.078125 18.707031 9.101562 L 21.144531 9.449219 C 21.144531 9.449219 21.144531 9.449219 21.148438 9.449219 C 21.261719 9.464844 21.382812 9.4375 21.480469 9.375 L 21.480469 9.371094 C 21.527344 9.339844 21.570312 9.300781 21.605469 9.253906 C 21.640625 9.203125 21.664062 9.148438 21.683594 9.09375 C 21.710938 8.988281 21.703125 8.882812 21.664062 8.78125 C 21.664062 8.769531 21.664062 8.757812 21.65625 8.75 C 21.65625 8.746094 21.65625 8.746094 21.65625 8.746094 L 20.628906 6.472656 C 20.554688 6.3125 20.40625 6.203125 20.234375 6.183594 C 20.0625 6.164062 19.890625 6.238281 19.789062 6.378906 L 19.433594 6.867188 C 18.105469 6.0625 16.5625 5.621094 15.019531 5.609375 " fill-opacity="1" fill-rule="nonzero"/></g></svg>